<svg t="1586152535459" class="icon" viewBox="0 0 1024 1024" version="1.1" xmlns="http://www.w3.org/2000/svg" p-id="7569" width="48" height="48"><path d="M806.807453 815.648414c-53.273785 0-96.57394 43.786673-96.57394 97.668607 0 53.760304 43.421784 97.546977 96.57394 97.546977 53.273785 0 96.69557-43.786673 96.69557-97.546977-0.12163-53.881934-43.543414-97.668607-96.69557-97.668607z m0 143.766243c-12.284594 0-23.961041-4.865186-32.596745-13.500891a46.231429 46.231429 0 0 1-13.500891-32.596745c0-12.284594 4.865186-23.961041 13.500891-32.596745 8.635705-8.635705 20.433781-13.500891 32.596745-13.500891 12.284594 0 23.961041 4.865186 32.596746 13.500891 8.635705 8.635705 13.500891 20.433781 13.500891 32.596745 0.12163 25.420596-20.55541 46.097636-46.097637 46.097636z m-8.878964-279.383299c-4.743556 0-9.730372-0.12163-14.838817-0.364889l-385.201093 0.364889s-13.257632-7.05452-13.014372-25.055708c0-17.14978 12.771113-25.298967 12.771113-25.298966h403.567169c43.300154-1.702815 69.693788-4.621927 90.857347-33.934672 6.568001-9.000594 11.433187-20.312151 16.784891-34.29956L961.033846 378.268203c6.689631-32.718375-1.824445-45.246229-10.946668-55.34149-14.352298-15.811854-54.490082-15.933484-54.490082-15.933483H347.290646s-12.527854-7.419408-12.527854-25.785486c0-17.14978 12.527854-24.2043 12.527854-24.204299h548.18482c5.230075 0.364889 54.611712-4.135408 89.884309 29.312745 21.041929 20.068892 27.001782 46.949044 23.596152 76.626677-1.946074 17.27141-57.409193 230.488181-81.735123 264.057964-22.258225 31.01556-53.517045 53.030526-129.292315 53.030527zM347.290646 777.456705c-43.543414 0-56.679416-10.46015-69.815417-26.515263-17.14978-21.285188-19.339114-48.895118-22.258226-61.787861L168.130176 268.679891C166.184101 256.638556 152.68321 239.367146 141.006764 232.677515c-19.460744-10.946668-100.830978-6.446371-116.886091-7.419408 0 0-9.973631-7.905927-9.973631-24.08267 0-18.487706 9.730372-25.055707 9.730372-25.055708 6.203112-0.608148 15.933484-0.608148 49.624896-0.851407 48.16534-0.12163 77.356456 0 107.398979 20.798669 32.475116 22.623114 34.786079 55.463119 39.286376 84.289346l88.424753 419.135764 0.973037 4.621927c1.824445 5.230075 3.892149 9.608742 9.973631 14.960446 7.176149 6.446371 14.838817 8.027557 22.136596 8.392446h1.337926l567.523934-0.12163v49.746526H353.007239c-1.946074 0.243259-3.770519 0.243259-5.716593 0.364889z m96.69557 38.191709c-53.273785 0-96.57394 43.786673-96.57394 97.668607 0 53.760304 43.421784 97.546977 96.57394 97.546977 53.273785 0 96.69557-43.786673 96.695569-97.546977-0.243259-53.881934-43.421784-97.668607-96.695569-97.668607z m0 143.766243c-12.284594 0-23.961041-4.865186-32.596746-13.500891a46.231429 46.231429 0 0 1-13.500891-32.596745c0-12.284594 4.865186-23.961041 13.500891-32.596745 8.635705-8.635705 20.433781-13.500891 32.596746-13.500891 25.420596 0 46.097636 20.67704 46.219266 46.219266-0.12163 25.298967-20.79867 45.976007-46.219266 45.976006zM460.649477 172.714099l-39.772894-98.641644c-4.378667-11.068298 0.973037-23.596152 11.919705-28.096448l6.203112-2.432593c11.068298-4.378667 23.596152 0.973037 28.096449 11.919705l39.772894 98.641644c4.378667 11.068298-0.973037 23.596152-11.919705 28.096449l-6.203112 2.554222c-11.068298 4.257038-23.596152-0.973037-28.096449-12.041335z m378.997981 0l39.772895-98.641644c4.378667-11.068298-0.973037-23.596152-11.919706-28.096448l-6.203112-2.432593c-11.068298-4.378667-23.596152 0.973037-28.096448 11.919705l-39.772895 98.641644c-4.378667 11.068298 0.973037 23.596152 11.919705 28.096449l6.081483 2.554222c11.068298 4.378667 23.717781-0.973037 28.218078-12.041335z m-210.784179-30.285782V36.002376c0-11.798076 9.730372-21.528448 21.528448-21.528448h6.689631c11.798076 0 21.528448 9.730372 21.528447 21.528448v106.425941c0 11.919705-9.730372 21.528448-21.528447 21.528447h-6.689631c-11.798076-0.12163-21.406818-9.730372-21.528448-21.528447z" fill="#1890ff" p-id="7570"></path></svg>