<svg t="1585751739884" class="icon" viewBox="0 0 1024 1024" version="1.1" xmlns="http://www.w3.org/2000/svg" p-id="7963" width="32" height="32"><path d="M210.332 470.715a685.074 685.074 0 0 0 7.816-21.594c8.557-24.884 16.302-51.46 23.115-78.026 2.382-9.29 4.479-17.92 6.274-25.675a618.556 618.556 0 0 0 2.218-9.878l-29.813 4.113c1.21 2.302 3.417 6.747 6.29 12.954a487.19 487.19 0 0 1 14.155 33.903c8.188 21.912 14.339 43.32 17.627 63.142 1.733 10.444 2.63 20.247 2.63 29.291 0 14.43 17.6 21.487 27.569 11.054 1.436-1.503 3.983-4.288 7.484-8.303 5.749-6.593 12.13-14.307 18.988-23.088 19.523-25.003 39.022-53.627 57.223-85.458C424.048 281.96 455.39 183.11 455.39 80l-22.04 14.816-0.005-0.002-0.008-0.003-0.012-0.005c-0.005-0.002-0.005-0.002-0.002 0l0.067 0.027a95.63 95.63 0 0 1 2.283 1.01 186.36 186.36 0 0 1 7.645 3.735c8.456 4.351 17.938 9.855 28.19 16.593 29.493 19.381 59.053 44.708 86.68 76.65 48.792 56.415 86.136 127.198 107.455 214.107 2.64 10.762 15.154 15.647 24.387 9.52l0.028-0.019 0.057-0.038 0.097-0.065 0.23-0.16c0.27-0.19 0.27-0.19 0.6-0.43 0.748-0.56 0.748-0.56 1.712-1.334a62.29 62.29 0 0 0 5.1-4.711c4.843-4.967 9.576-11.195 13.909-18.78 19.26-33.714 25.217-82.982 11.154-150.07l-26.334 15.202c0.773 0.692 2.352 2.148 4.648 4.334a527.646 527.646 0 0 1 13.225 13.08c14.045 14.355 28.886 30.852 43.828 49.22 42.58 52.344 77.365 109.042 98.882 167.822 60.754 165.972 6.583 316.267-208.716 439.618l22.37 20.823c3.81-7.913 9.256-22.189 14.624-42.088 15.42-57.17 19.685-123.351 6.066-195.54-18.44-97.738-68.042-195.273-155.16-289.382-10.587-11.437-29.613-2.528-27.608 12.928 0.395 3.039 0.832 9.329 0.848 18.446 0.026 15.517-1.296 33.029-4.425 52.118-8.986 54.806-30.71 111.005-68.889 165.419l29.097 9.343v-0.005-0.009-0.026-0.06l0.002-0.18-0.002-0.599c-0.006-0.861-0.006-0.861-0.03-2.13a235.777 235.777 0 0 0-0.305-7.804c-0.454-8.316-1.317-17.793-2.696-28.291-3.918-29.828-11.161-62.007-22.583-95.398-5.087-14.874-26.331-14.26-30.551 0.883v-0.002c0-0.001 0-0.001 0 0 0.001-0.002 0.001-0.002 0 0l-0.005 0.02-0.03 0.104-0.132 0.465c-0.214 0.744-0.214 0.744-0.558 1.918a462.64 462.64 0 0 1-2.279 7.471 685.304 685.304 0 0 1-9.104 26.964c-10.05 27.911-21.913 55.81-35.475 81.749-12.327 23.575-25.468 44.34-39.318 61.507l-1.104 1.549-0.006 0.01-0.012 0.019-0.024 0.037-0.062 0.102-0.187 0.306c-0.253 0.42-0.253 0.42-0.606 1.018-0.61 1.041-1.29 2.248-2.03 3.616-2.063 3.81-4.239 8.207-6.442 13.153-6.238 14.002-11.538 29.727-15.2 46.88-10.494 49.164-5.706 100.13 20.143 149.776l19.26-22.566 0.003 0.002 0.006 0.002 0.008 0.002-0.006-0.002-0.086-0.03c-0.167-0.056-0.167-0.056-0.458-0.159-0.768-0.272-0.768-0.272-2.006-0.729a222.454 222.454 0 0 1-7.963-3.157c-8.688-3.625-18.27-8.132-28.43-13.564-29.034-15.521-56.728-35.25-80.615-59.454-67.718-68.619-92.505-159.095-55.614-276.828l-1.82 3.884c0.602-0.933 1.674-2.638 3.15-5.046a565.108 565.108 0 0 0 8.021-13.537c8.263-14.375 16.522-29.986 24.24-46.322 5.87-12.42 11.2-24.795 15.864-37.008z m-29.895-11.416c-4.357 11.41-9.366 23.04-14.9 34.753-7.329 15.507-15.193 30.373-23.052 44.045a533.264 533.264 0 0 1-7.563 12.766 255.848 255.848 0 0 1-2.762 4.428 16 16 0 0 0-1.82 3.885c-40.544 129.395-12.413 232.078 63.375 308.873 26.34 26.69 56.61 48.254 88.304 65.197 11.095 5.932 21.596 10.872 31.196 14.877a254.24 254.24 0 0 0 9.118 3.613 154.366 154.366 0 0 0 3.248 1.169l0.21 0.072 0.068 0.023a32.888 32.888 0 0 0 0.03 0.01l0.009 0.003c13.65 4.557 25.907-9.805 19.264-22.564-22.177-42.594-26.258-86.03-17.231-128.318 3.17-14.854 7.764-28.482 13.135-40.539 1.86-4.174 3.671-7.835 5.351-10.939a93.52 93.52 0 0 1 1.507-2.686c0.225-0.382 0.225-0.382 0.352-0.592l0.062-0.101c0.003-0.006 0.003-0.006 0-0.001l-0.007 0.012-0.004 0.006-0.004 0.006-1.11 1.557c15.295-18.957 29.533-41.456 42.77-66.773 14.302-27.352 26.717-56.55 37.226-85.735a717.16 717.16 0 0 0 9.53-28.23 494.428 494.428 0 0 0 2.437-7.993c0.38-1.295 0.38-1.295 0.628-2.156 0.1-0.347 0.1-0.347 0.165-0.58l0.045-0.16 0.013-0.047 0.005-0.015v-0.003l0.002-0.004-30.551 0.88c10.701 31.286 17.48 61.404 21.133 89.21 1.27 9.673 2.06 18.343 2.47 25.865 0.142 2.592 0.226 4.843 0.266 6.736 0.018 1.016 0.018 1.016 0.023 1.63v0.409-0.007c-0.15 15.708 20.072 22.202 29.097 9.34 41.067-58.53 64.538-119.246 74.272-178.622 3.423-20.875 4.876-40.13 4.847-57.349-0.018-10.523-0.55-18.164-1.114-22.51l-27.608 12.928c83.058 89.725 129.88 181.793 147.197 273.577 12.667 67.146 8.712 128.519-5.517 181.273-2.83 10.491-5.848 19.713-8.846 27.57-1.747 4.58-3.056 7.603-3.715 8.972-6.817 14.161 8.734 28.636 22.37 20.823 228.875-131.128 288.954-297.819 222.859-478.384-22.882-62.508-59.46-122.128-104.108-177.015-15.587-19.162-31.077-36.38-45.779-51.406a559.458 559.458 0 0 0-14.034-13.878c-2.536-2.415-4.353-4.09-5.364-4.996-11.513-10.31-29.504 0.076-26.334 15.202 12.533 59.786 7.538 101.099-7.62 127.631-2.967 5.195-6.056 9.26-9.037 12.317-0.946 0.97-1.776 1.73-2.46 2.29-0.308 0.247-0.308 0.247-0.407 0.32a0.336 0.336 0 0 0 0.042-0.03l0.087-0.06 0.06-0.04 0.028-0.018 0.019-0.013 24.413 9.502c-22.55-91.924-62.286-167.241-114.331-227.417-29.642-34.272-61.44-61.517-93.308-82.46-11.222-7.374-21.682-13.445-31.123-18.303a218.103 218.103 0 0 0-8.972-4.38c-0.944-0.432-1.486-0.673-2.504-1.116-0.418-0.18-0.418-0.18-0.714-0.304l-0.217-0.09-0.074-0.031-0.027-0.011-0.007-0.003-0.009-0.004c-10.53-4.292-22.046 3.45-22.046 14.814 0 96.937-29.686 190.56-79.263 277.266-17.4 30.432-36.044 57.801-54.665 81.648-6.493 8.315-12.508 15.585-17.885 21.751-3.174 3.64-5.394 6.068-6.501 7.227l27.568 11.053c0-10.905-1.056-22.438-3.062-34.529-3.665-22.088-10.364-45.404-19.22-69.104a518.965 518.965 0 0 0-15.09-36.143 424.36 424.36 0 0 0-5.01-10.467 209.604 209.604 0 0 0-1.994-3.932c-6.966-13.257-26.697-10.534-29.813 4.113a590.136 590.136 0 0 1-2.095 9.321 1095.2 1095.2 0 0 1-6.095 24.942c-6.616 25.797-14.13 51.582-22.378 75.57a653.186 653.186 0 0 1-7.45 20.583z" fill="#1890ff" p-id="7964"></path></svg>