<!-- <svg t="1584356045392" class="icon" viewBox="0 0 1024 1024" version="1.1" xmlns="http://www.w3.org/2000/svg" p-id="3697" width="32" height="32"><path d="M208.918337 302.709384a302.47671 302.47671 0 0 0 605.046489 0 302.47671 302.47671 0 1 0-605.046489 0z" fill="#319FFF" p-id="3698"></path><path d="M803.680618 603.557373a60.309202 60.309202 0 0 0-80.3192 5.118837 300.941059 300.941059 0 0 1-213.595092 88.881618c-83.762781 0-159.00968-34.203136-213.688162-88.881618-22.197137-22.197137-56.400273-25.594183-80.3192-5.118837-92.278664 78.643945-160.6384 179.438491-182.882072 317.879755C24.314474 977.837401 63.636446 1024 121.758509 1024h781.087935c56.400273 0 97.397501-46.162599 88.881618-102.562872-23.965462-138.441263-92.325199-239.282345-188.000909-317.879755z" fill="#319FFF" p-id="3699"></path></svg> -->

<svg t="1584356061186" class="icon" viewBox="0 0 1024 1024" version="1.1" xmlns="http://www.w3.org/2000/svg" p-id="3894" width="32" height="32"><path d="M505.628444 530.773333A252.586667 252.586667 0 1 1 505.742222 25.770667a252.586667 252.586667 0 0 1-0.113778 505.116444z m0-434.574222a182.044444 182.044444 0 1 0 0 364.088889 182.044444 182.044444 0 0 0 0-364.088889z m-74.524444 474.851556h149.048889c234.552889 0 424.675556 177.152 424.675555 395.719111 0 17.578667-15.36 31.800889-34.133333 31.800889H40.675556c-18.887111 0-34.133333-14.222222-34.133334-31.857778 0-218.453333 190.065778-395.662222 424.618667-395.662222z m149.048889 63.601777h-149.048889c-185.230222 0-337.521778 131.811556-354.702222 300.316445h858.510222c-17.180444-168.504889-169.415111-300.316444-354.759111-300.316445z" fill="#319FFF" p-id="3895"></path></svg>