<!-- <svg t="1584356553732" class="icon" viewBox="0 0 1024 1024" version="1.1" xmlns="http://www.w3.org/2000/svg" p-id="17745" width="32" height="32"><path d="M512 0C228.693333 0 0 228.693333 0 512s228.693333 512 512 512 512-228.693333 512-512S795.306667 0 512 0z m-10.24 245.76c20.48 0 34.133333 13.653333 34.133333 34.133333v259.413334c0 20.48-13.653333 34.133333-34.133333 34.133333s-34.133333-13.653333-34.133333-34.133333V279.893333c0-20.48 17.066667-34.133333 34.133333-34.133333z m10.24 515.413333c-136.533333 0-249.173333-109.226667-249.173333-245.76 0-61.44 23.893333-119.466667 64.853333-163.84 13.653333-13.653333 34.133333-13.653333 47.786667-3.413333 13.653333 13.653333 13.653333 34.133333 3.413333 47.786667-30.72 30.72-44.373333 75.093333-44.373333 116.053333 0 95.573333 81.92 177.493333 180.906666 177.493333s180.906667-78.506667 180.906667-177.493333c0-44.373333-17.066667-85.333333-44.373333-116.053333-13.653333-13.653333-10.24-34.133333 3.413333-47.786667 13.653333-13.653333 34.133333-10.24 47.786667 3.413333 40.96 44.373333 64.853333 102.4 64.853333 163.84-6.826667 136.533333-119.466667 245.76-256 245.76z" p-id="17746" fill="#1890ff"></path></svg> -->

<!-- <svg t="1584356743654" class="icon" viewBox="0 0 1024 1024" version="1.1" xmlns="http://www.w3.org/2000/svg" p-id="18223" width="32" height="32"><path d="M699.245714 132.388571c0 13.531429 7.314286 25.234286 19.017143 32.182858 136.777143 79.725714 222.72 237.348571 195.291429 411.794285-27.428571 175.908571-173.714286 315.611429-350.72 335.36C320.365714 938.788571 114.468571 748.982857 114.468571 512c0-148.114286 80.822857-277.942857 200.411429-347.428571 11.337143-6.582857 19.017143-18.651429 19.017143-31.817143 0-27.794286-30.354286-46.445714-54.491429-32.548572-160.914286 92.891429-262.217143 277.211429-233.325714 482.011429 29.988571 211.017143 204.068571 378.88 416.182857 402.651428 286.72 31.817143 529.554286-192 529.554286-472.502857 0-176.274286-95.817143-329.874286-238.08-412.16-24.137143-14.262857-54.491429 4.388571-54.491429 32.182857z" p-id="18224" fill="#1890ff"></path><path d="M516.754286 548.571429c-30.354286 0-54.857143-24.502857-54.857143-54.857143v-402.285715c0-30.354286 24.502857-54.857143 54.857143-54.857142s54.857143 24.502857 54.857143 54.857142v402.285715c-0.365714 30.354286-24.868571 54.857143-54.857143 54.857143z" p-id="18225" fill="#1890ff"></path></svg> -->

<!-- <svg t="1584356968681" class="icon" viewBox="0 0 1024 1024" version="1.1" xmlns="http://www.w3.org/2000/svg" p-id="18471" width="32" height="32"><path d="M665.6 1008.64H168.96c-40.96 0-76.8-35.84-76.8-76.8V92.16c0-40.96 35.84-76.8 76.8-76.8h491.52c46.08 0 81.92 35.84 81.92 76.8V204.8h-51.2V92.16c0-15.36-10.24-25.6-25.6-25.6H168.96c-15.36 0-25.6 10.24-25.6 25.6v834.56c0 15.36 10.24 25.6 25.6 25.6h491.52c15.36 0 25.6-10.24 25.6-25.6v-133.12h51.2v133.12c5.12 46.08-30.72 81.92-71.68 81.92z" fill="#1890ff" p-id="18472"></path><path d="M863.0272 485.5296l0.3584 51.2-445.44 3.072-0.3584-51.2z" fill="#1890ff" p-id="18473"></path><path d="M711.68 716.8l-35.84-35.84L844.8 512l-168.96-168.96 35.84-35.84 209.92 204.8z" fill="#1890ff" p-id="18474"></path></svg> -->

<svg t="1584357350155" class="icon" viewBox="0 0 1024 1024" version="1.1" xmlns="http://www.w3.org/2000/svg" p-id="9053" width="32" height="32"><path d="M997.7856 483.328l-176.9472-176.9472c-13.312-13.312-35.0208-13.312-48.3328 0s-13.312 35.0208 0 48.3328l124.3136 124.3136H459.9808c-18.0224 0-32.768 14.7456-32.768 32.768 0 18.2272 14.7456 32.768 32.768 32.768h436.8384l-126.3616 126.3616c-13.312 13.312-13.312 35.0208 0 48.3328s35.0208 13.312 48.3328 0l178.9952-178.9952c17.6128-17.6128 19.456-37.4784 0-56.9344z" p-id="9054" fill="#1890ff"></path><path d="M10.4448 817.3568V208.4864c0-97.4848 24.3712-115.712 97.4848-115.712h505.4464c66.9696 0 115.712 42.5984 115.712 127.7952v60.8256c0 18.2272-18.2272 30.5152-36.4544 30.5152s-36.4544-12.0832-36.4544-30.5152v-60.8256c0-30.5152-18.2272-60.8256-42.5984-60.8256H120.2176c-24.3712 0-36.4544 30.5152-36.4544 60.8256v590.6432c0 30.5152 12.288 48.7424 36.4544 48.7424h493.1584c24.3712 0 42.5984-18.2272 42.5984-48.7424v-60.8256c0-18.2272 12.288-30.5152 30.5152-30.5152s36.4544 12.0832 36.4544 30.5152v60.8256c0 85.1968-36.4544 121.6512-115.712 121.6512H120.2176C47.104 926.9248 10.4448 902.5536 10.4448 817.3568z m0 0" p-id="9055" fill="#1890ff"></path></svg>