<!-- <svg t="1584356371204" class="icon" viewBox="0 0 1024 1024" version="1.1" xmlns="http://www.w3.org/2000/svg" p-id="16707" width="32" height="32"><path d="M650.619259 208.213333L187.354074 665.505185l166.115556 172.373334 457.007407-464.782223-159.857778-164.882963zM61.345185 967.774815l252.207408-107.52-154.832593-152.367408-97.374815 259.887408z m880.82963-791.893334s-42.287407-46.838519-91.022222-82.488888c-48.734815-35.555556-86.186667 0-86.186667 0l-82.394074 82.488888 167.348148 166.77926s70.542222-71.205926 92.254815-95.573334c21.712593-24.367407 0-71.205926 0-71.205926zM911.17037 881.019259H487.822222c-16.782222 0-30.435556 13.653333-30.435555 30.435556 0 16.782222 13.653333 30.435556 30.435555 30.435555H911.17037c16.782222 0 30.435556-13.653333 30.435556-30.435555 0-16.782222-13.653333-30.435556-30.435556-30.435556z m0-145.161481H592.877037c-16.782222 0-30.435556 13.653333-30.435556 30.435555 0 16.877037 13.653333 30.435556 30.435556 30.435556H911.17037c16.782222 0 30.435556-13.653333 30.435556-30.435556 0-16.877037-13.653333-30.435556-30.435556-30.435555z m0-145.256297H684.562963c-16.782222 0-30.435556 13.653333-30.435556 30.435556 0 16.877037 13.653333 30.435556 30.435556 30.435556h226.607407c16.782222 0 30.435556-13.653333 30.435556-30.435556 0-16.782222-13.653333-30.435556-30.435556-30.435556z" p-id="16708" fill="#1890ff"></path></svg> -->

<!-- <svg t="1584356405406" class="icon" viewBox="0 0 1024 1024" version="1.1" xmlns="http://www.w3.org/2000/svg" p-id="16914" width="32" height="32"><path d="M890.116 1024l-762.92 0C56.934 1024 0 967.033 0 896.79L0 133.537C0 63.295 57.776 0.285 127.987 0.285l512 0 0 64.001-512 0c-35.081 0-64.414 34.131-64.414 69.252L63.573 896.79c0 35.122 28.491 63.604 63.622 63.604l762.92 0c35.132 0 69.866-29.225 69.866-64.346L959.981 384.19 1024 384.19l0 511.858C1024 966.29 960.378 1024 890.116 1024L890.116 1024zM510.118 715.736c-9.266 9.313-20.91 13.969-32.951 16.298L198.795 869.695c-31.315 14.563-56.438-13.524-44.842-44.881l137.6-278.492c2.329-12.037 6.986-23.678 16.252-32.942L802.362 18.614c24.825-24.818 65.06-24.818 89.884 0l112.429 112.447c24.824 24.867 24.824 65.14 0 89.958L510.118 715.736 510.118 715.736zM214.799 786.326c-7.233 14.662 6.789 29.721 22.447 22.489L409.134 704.69l-90.279-90.305L214.799 786.326 214.799 786.326zM375.242 580.849l67.437 67.419c12.437 12.434-19.671-19.666 22.495 22.489l359.634-359.78L711.637 199.322 352.796 558.359C364.738 570.298 362.855 568.415 375.242 580.849L375.242 580.849zM937.237 153.55l-67.436-67.468c-12.438-12.383-32.555-12.383-44.992 0l-65.803 65.883 110.794 114.032 67.436-67.467C949.625 186.144 949.625 165.983 937.237 153.55L937.237 153.55z" p-id="16915" fill="#1890ff"></path></svg> -->

<!-- <svg t="1584357005048" class="icon" viewBox="0 0 1024 1024" version="1.1" xmlns="http://www.w3.org/2000/svg" p-id="19343" width="32" height="32"><path d="M939.5 220.9L804.2 85.2C790.6 71.5 772.3 64 752.8 64s-37.8 7.5-51.4 21.2L163 625.4c-8.2 8.2-8.3 8.3-97.4 289.2-4 12.5-0.5 26.1 9.1 35.3 6.7 6.5 15.8 10.1 25.2 10.1 3.8 0 7.5-0.6 11.1-1.7 280-89.5 280.2-89.6 288.8-98l539.7-541.5c27.3-27.5 27.3-70.4 0-97.9zM354 805.8c-25 8.6-117.1 38.4-199.2 64.7 26.5-83.1 56.5-176.8 65.1-201.6l377.7-379 137.1 134L354 805.8z m430.7-432.1l-137.1-134 105.2-105.6 135.3 135.8-103.4 103.8z m-285 531c0 19.4 16.1 35.1 35.9 35.1h358.6c19.8 0 35.9-15.7 35.9-35.1v-52.6H499.7v52.6z" fill="#1890ff" p-id="19344"></path></svg> -->

<svg t="1584357269443" class="icon" viewBox="0 0 1024 1024" version="1.1" xmlns="http://www.w3.org/2000/svg" p-id="4118" width="32" height="32"><path d="M660.560169 521.590023c15.981289-4.473761 31.323826-8.946272 46.020112-13.423783 12.787531-3.832509 25.888813-7.670019 39.311346-11.503778 13.422533-3.837509 24.61006-7.353768 33.560082-10.546276l-13.422533 50.815124c-3.837509 14.062534-7.353768 24.61006-10.547526 31.641327-6.391266 17.261292-13.901284 33.237581-22.533805 47.940117-8.627521 14.702536-16.777541 27.485067-24.44881 38.356344-8.950022 12.782531-18.217544 24.60881-27.802568 35.473837l-117.935288 35.472587 96.841486 17.261292c-12.783781 10.863777-26.528815 22.052554-41.230101 33.561332-12.783781 9.585023-27.323817 19.652548-43.622607 30.198824-16.30379 10.547526-33.398832 20.29255-51.298875 29.243821-17.895044 8.951272-37.871342 13.585033-59.922646 13.901284-22.055054 0.322501-42.987605-1.118753-62.802653-4.311261-23.012556-3.197508-46.025112-8.627521-69.032669-16.29879 7.031267-10.868777 14.701286-23.012556 23.007556-36.435089 7.031267-11.508778 15.502538-25.087561 25.410062-40.752599 9.907524-15.658788 20.29255-33.076331 31.162576-52.251378C441.952135 648.152832 471.678458 597.335208 500.443528 547.476337 529.203598 497.618715 555.091161 452.554855 578.104968 412.286007 604.310032 365.625893 629.560093 321.519535 653.851403 279.971934c-30.043823 34.516334-61.685151 73.187679-94.922732 116.015283C530.164851 432.422306 498.202273 475.728661 463.045937 525.906284c-35.156336 50.175122-70.947673 104.989006-107.384012 164.434151-7.670019 12.14253-16.29879 26.205064-25.887563 42.187603-9.590023 15.981289-19.653798 32.91883-30.201324 50.813874-10.546276 17.900044-21.415052 36.275089-32.60258 55.131385-11.186277 18.857546-22.211304 37.231341-33.076331 55.131385-25.571312 41.547601-51.776376 85.016458-78.622692 130.395318 0.640002-13.422533 3.198758-30.678825 7.671269-51.772626 3.832509-17.900044 10.223775-40.273848 19.175047-67.118914 8.950022-26.846316 21.732553-58.486393 38.353844-94.922732 10.865027-23.007556 19.175047-40.90885 24.927561-53.691381 5.751264-12.783781 10.228775-22.690055 13.422533-29.721323 3.197508-7.671269 5.751264-12.783781 7.671269-15.340037-3.193758-3.833759-3.833759-11.505028-1.920005-23.013806 1.280003-10.223775 4.956262-25.087561 11.026277-44.585109 6.073765-19.491298 16.46004-46.821364 31.161326-81.9777 14.702536-35.790087 34.038833-74.306431 58.008892-115.531532 23.968809-41.231351 50.976374-82.138951 81.020198-122.7303 30.043823-40.586349 62.641403-79.897695 97.797739-117.930288 35.156336-38.032593 71.108924-71.752675 107.866513-101.152747 36.75259-29.403822 73.506429-53.535131 110.259019-72.392677 36.75759-18.857546 72.392677-29.560072 106.909011-32.118828 0.640002 22.372555-1.601254 51.933877-6.713766 88.691467-5.112512 36.75259-11.503778 76.065186-19.175047 117.930288-7.671269 41.870102-16.29879 84.375206-25.888813 127.519061-9.585023 43.150105-18.857546 82.300201-27.802568 117.456537L660.560169 521.590023zM660.560169 521.590023" fill="#1890ff" p-id="4119"></path></svg>