<!-- <svg t="1584355862897" class="icon" viewBox="0 0 1024 1024" version="1.1" xmlns="http://www.w3.org/2000/svg" p-id="2661" width="32" height="32"><path d="M705.596235 801.882353c-11.324235 0-1.596235 10.255059-1.596235 22.603294v182.558118L902.038588 801.882353H705.596235z" fill="#319FFF" p-id="2662"></path><path d="M899.764706 107.791059C899.764706 66.710588 867.448471 3.764706 820.103529 3.764706H171.414588C123.813647 3.764706 101.647059 65.837176 101.647059 107.791059v834.635294c0 30.373647 12.107294 70.264471 69.767529 70.264471H688.941176V824.485647c0-25.524706 3.192471-37.662118 16.655059-37.662118H899.764706m-568.350118-572.235294h445.184c11.881412 0 21.534118 10.706824 21.534118 22.588236s-9.667765 22.588235-21.534118 22.588235H331.414588c-11.881412 0-21.534118-10.706824-21.534117-22.588235s9.667765-22.588235 21.534117-22.588236z m0 195.764706h445.184c11.881412 0 21.534118 10.706824 21.534118 22.588235s-9.667765 22.588235-21.534118 22.588236H331.414588c-11.881412 0-21.534118-10.706824-21.534117-22.588236s9.667765-22.588235 21.534117-22.588235z m0 180.705883h445.184c11.881412 0 21.534118 10.706824 21.534118 22.588235s-9.667765 22.588235-21.534118 22.588235H331.414588c-11.881412 0-21.534118-10.706824-21.534117-22.588235s9.667765-22.588235 21.534117-22.588235z m-33.822117 197.210352l-29.620706 29.620706c-4.065882 4.065882-9.487059 6.309647-15.224471 6.309647s-11.158588-2.243765-15.22447-6.309647L222.253176 802.635294c-4.065882-4.065882-6.309647-9.487059-6.309647-15.22447s2.243765-11.158588 6.309647-15.224471c8.131765-8.131765 22.332235-8.131765 30.464 0l0.030118 0.030118 14.396235-14.396236c8.131765-8.131765 22.332235-8.131765 30.464 0 4.065882 4.065882 6.309647 9.487059 6.309647 15.224471s-2.258824 11.158588-6.324705 15.22447z m0-181.910588l-29.620706 29.620706c-4.065882 4.065882-9.487059 6.309647-15.224471 6.309647s-11.158588-2.243765-15.22447-6.309647L222.268235 620.724706c-4.065882-4.065882-6.309647-9.487059-6.309647-15.224471s2.243765-11.158588 6.309647-15.22447c8.131765-8.131765 22.332235-8.131765 30.464 0l0.030118 0.030117 14.396235-14.396235c8.131765-8.131765 22.332235-8.131765 30.464 0a21.443765 21.443765 0 0 1-0.030117 30.448941z m0-181.910588l-29.620706 29.620706c-4.065882 4.065882-9.487059 6.309647-15.224471 6.309647s-11.158588-2.243765-15.22447-6.309647L222.268235 438.814118c-4.065882-4.065882-6.309647-9.487059-6.309647-15.224471 0-5.752471 2.243765-11.158588 6.309647-15.224471 8.131765-8.131765 22.332235-8.131765 30.464 0l0.030118 0.030118 14.396235-14.396235c8.131765-8.131765 22.332235-8.131765 30.464 0a21.534118 21.534118 0 0 1-0.030117 30.448941z m0-181.895529l-29.620706 29.620705c-4.065882 4.065882-9.487059 6.309647-15.224471 6.309648s-11.158588-2.243765-15.22447-6.309648l-15.254589-15.254588c-4.065882-4.065882-6.309647-9.487059-6.309647-15.22447s2.243765-11.158588 6.309647-15.224471c8.131765-8.131765 22.332235-8.131765 30.464 0l0.030118 0.030118 14.396235-14.396236c8.131765-8.131765 22.332235-8.131765 30.464 0a21.534118 21.534118 0 0 1-0.030117 30.448942zM632.997647 801.882353H331.414588c-11.881412 0-21.534118-10.706824-21.534117-22.588235s9.667765-22.588235 21.534117-22.588236h301.583059c11.881412 0 21.534118 10.706824 21.534118 22.588236s-9.652706 22.588235-21.534118 22.588235z" fill="#319FFF" p-id="2663"></path></svg> -->

<svg t="1584355970878" class="icon" viewBox="0 0 1024 1024" version="1.1" xmlns="http://www.w3.org/2000/svg" p-id="3021" width="32" height="32"><path d="M759.016907 33.651424 263.814478 33.651424c-85.614913 0-155.262156 69.647243-155.262156 155.262156l0 643.75579c0 85.614913 69.647243 155.272389 155.262156 155.272389l459.948507 0 190.516078-217.740116L914.279063 188.913581C914.279063 103.298668 844.63182 33.651424 759.016907 33.651424zM171.480536 832.66937 171.480536 188.913581c0-50.9146 41.419342-92.333942 92.333942-92.333942l495.202429 0c50.9146 0 92.333942 41.419342 92.333942 92.333942l0 549.992289-171.587983-1.110287 0 187.217962L263.814478 925.013545C212.900901 925.013545 171.480536 883.58397 171.480536 832.66937zM312.312028 331.802942l396.159692 0c17.380856 0 31.464619-14.08274 31.464619-31.464619s-14.08274-31.464619-31.464619-31.464619L312.312028 268.873704c-17.380856 0-31.464619 14.08274-31.464619 31.464619S294.930149 331.802942 312.312028 331.802942zM312.312028 536.064069l396.159692 0c17.380856 0 31.464619-14.08274 31.464619-31.464619 0-17.380856-14.08274-31.464619-31.464619-31.464619L312.312028 473.134831c-17.380856 0-31.464619 14.08274-31.464619 31.464619C280.847409 521.981329 294.930149 536.064069 312.312028 536.064069zM473.248418 677.407214 312.312028 677.407214c-17.380856 0-31.464619 14.08274-31.464619 31.464619s14.08274 31.464619 31.464619 31.464619l160.936389 0c17.380856 0 31.464619-14.08274 31.464619-31.464619S490.629273 677.407214 473.248418 677.407214z" fill="#319FFF" p-id="3022"></path></svg>